<svg xmlns="http://www.w3.org/2000/svg" version="1.1" xmlns:xlink="http://www.w3.org/1999/xlink" viewBox="0 0 9.458415626895588 3.0429039104181252"><g transform="matrix(0.7449551762290316,0,0,0.7449551762290316,3.086052336933064,1.1661083361478144)"><g transform="matrix(1,0,0,1,0,0)" clip-path="url(#SvgjsClipPath142837)"><g clip-path="url(#SvgjsClipPath142835a71dbf8a-4622-4115-9236-ff36b3e60f14)"><path d=" M -1.5795676622526025 -0.1827055178076089 C -1.5795676622526025 -0.1827055178076089 -1.6051657031363478 -0.27566682417489496 -1.552622356059186 -0.3174320487746902 C -1.5431914988914903 -0.3241683753230443 -1.532413376414124 -0.32955743656172753 -1.5216352539367572 -0.3309047018713983 L -1.4381048047371667 -0.3497664162067897 C -1.4259794169501294 -0.35246094682613127 -1.4125067638534214 -0.35246094682613127 -1.4003813760663841 -0.3497664162067897 C -1.3774778658019802 -0.3430300896584357 -1.3464907636795516 -0.3268629059423859 -1.3330181105828434 -0.2783613547942366 C -1.3128091309377812 -0.20560902807201265 -1.2535294573122653 0.06923309510083331 -1.3249345187248187 0.19991783013890208 C -1.338407171821527 0.22551587102264758 -1.3734360698729677 0.2295576669516599 -1.39364504951803 0.20800142199692695 C -1.4556192537628874 0.14333268713272806 -1.5297188457947821 -0.0008247010020491219 -1.5795676622526025 -0.1827055178076089 Z" fill="#f4ab0b" transform="matrix(1,0,0,1,0,0)" fill-rule="nonzero"></path></g><g clip-path="url(#SvgjsClipPath142835a71dbf8a-4622-4115-9236-ff36b3e60f14)"><path d=" M -1.5566641519881983 -0.5073964574382749 L -1.4812172946466327 -0.5235636411543246 L -1.4677446415499245 -0.36054453868415626 L -1.5000790089820242 -0.35380821213580216 Z" fill="#f4ab0b" transform="matrix(1,0,0,1,0,0)" fill-rule="nonzero"></path></g><g clip-path="url(#SvgjsClipPath142835a71dbf8a-4622-4115-9236-ff36b3e60f14)"><path d=" M -1.624027417471739 -0.46428396752880885 L -1.6644453767618634 -0.41039335514197633 L -1.5418442335818192 -0.3443773549681065 L -1.5216352539367572 -0.34841915089711883 Z" fill="#f4ab0b" transform="matrix(1,0,0,1,0,0)" fill-rule="nonzero"></path></g><g clip-path="url(#SvgjsClipPath142835a71dbf8a-4622-4115-9236-ff36b3e60f14)"><path d=" M -1.4003813760663841 -0.514132783986629 L -1.342448967750539 -0.48179841655452943 L -1.4246321516404588 -0.3699753958518519 L -1.4461883965951916 -0.36593359992283947 Z" fill="#f4ab0b" transform="matrix(1,0,0,1,0,0)" fill-rule="nonzero"></path></g><g clip-path="url(#SvgjsClipPath142835a71dbf8a-4622-4115-9236-ff36b3e60f14)"><path d=" M -1.2710439063379861 -0.17058013002057154 C -1.2710439063379861 -0.17058013002057154 -1.3101146003184396 -0.15845474223353428 -1.3734360698729677 -0.1611492728528759 C -1.4367575394274958 -0.16519106878188822 -1.529718845794782 -0.1153422523240682 -1.4407993353565083 0.08674754412655383 C -1.3922977842083593 0.15815260553910693 -1.3384071718215267 0.1594998708487778 -1.3141563962474518 0.14872174837141117 C -1.2966419472217314 0.14198542182305718 -1.2750857022669981 0.1527635443004235 -1.2602657838606195 0.15680534022943615 C -1.2454458654542404 0.1608471361584487 -1.203680640854445 0.13524909527470308 -1.1848189265190538 0.10291472784260358 C -1.1659572121836626 0.0705803604105042 -1.0312306812165812 -0.18001098718826725 -1.2710439063379861 -0.17058013002057154 Z" fill="#ea0707" transform="matrix(1,0,0,1,0,0)" fill-rule="nonzero"></path></g><g clip-path="url(#SvgjsClipPath142835a71dbf8a-4622-4115-9236-ff36b3e60f14)"><path d=" M -1.257571253241278 -0.22985980364608738 L -1.2966419472217314 -0.2446797220524663 L -1.3195454574861352 -0.1611492728528759 L -1.3047255390797563 -0.15171841568518007 C -1.3047255390797563 -0.15171841568518007 -1.3020310084604145 -0.20560902807201265 -1.257571253241278 -0.22985980364608738 Z" fill="#ea0707" transform="matrix(1,0,0,1,0,0)" fill-rule="nonzero"></path></g><g clip-path="url(#SvgjsClipPath142835a71dbf8a-4622-4115-9236-ff36b3e60f14)"><path d=" M -1.601123907207335 -0.3457246202777773 C -1.601123907207335 -0.3457246202777773 -1.62537468278141 -0.22042894647839162 -1.6092074990653602 -0.17327466063991315 L -1.6725289686198883 -0.14767661975616775 L -1.6873488870262674 -0.32282111001337344 L -1.601123907207335 -0.3457246202777773 Z" fill="#ffda03" transform="matrix(1,0,0,1,0,0)" fill-rule="nonzero"></path></g><g clip-path="url(#SvgjsClipPath142835a71dbf8a-4622-4115-9236-ff36b3e60f14)"><path d=" M -1.0541341914809852 0.27536468748046783 C -1.0541341914809852 0.27536468748046783 -0.9611728851136989 0.21608501385495182 -1.0150634975005315 0.1662361973971319 C -1.068954109887364 0.11638738093931167 -1.176735334661029 0.09483113598457882 -1.2858638247443648 0.08944207474589538 C -1.3963395801373715 0.08135848288787051 -1.5135516620787324 -0.06684070117591895 -1.5337606417237946 -0.11938404825308063 C -1.5539696213688567 -0.17192739533024237 -1.6792652951682423 -0.224470742407404 -1.7156414585293542 -0.09782780329834762 C -1.753364887200137 0.028815135810708936 -1.5270243151754406 0.36428419791874145 -1.0743431711260474 0.29557366712553" fill="#ffda03" transform="matrix(1,0,0,1,0,0)" fill-rule="nonzero"></path></g><g clip-path="url(#SvgjsClipPath142835a71dbf8a-4622-4115-9236-ff36b3e60f14)"><path d=" M -1.3671133537746822 1.2622877228961058 C -1.3282213419186464 1.3516711185652408 -1.3448151306634615 1.4450692374037404 -1.4041766224437264 1.470898283445535 C -1.4635381142239914 1.4967273294873298 -1.5431883001991022 1.4452063599544465 -1.582080312055138 1.355822964285312 C -1.6209723239111737 1.2664395686161773 -1.6043785351663586 1.1730414497776778 -1.545017043386094 1.1472124037358835 C -1.4856555516058292 1.1213833576940884 -1.4060053656307179 1.1729043272269717 -1.3671133537746822 1.2622877228961058 Z" fill="#619e2b" transform="matrix(1,0,0,1,0,0)" fill-rule="nonzero"></path></g><g clip-path="url(#SvgjsClipPath142835a71dbf8a-4622-4115-9236-ff36b3e60f14)"><path d=" M -0.7339552433724064 1.261875459711347 C -0.6950632315163707 1.3512588553804816 -0.7116570202611854 1.4446569742189808 -0.7710185120414506 1.4704860202607755 C -0.8303800038217148 1.4963150663025702 -0.9100301897968261 1.4447940967696877 -0.948922201652862 1.3554107011005527 C -0.9878142135088976 1.2660273054314182 -0.9712204247640825 1.1726291865929186 -0.9118589329838176 1.146800140551124 C -0.8524974412035526 1.1209710945093296 -0.772847255228442 1.1724920640422125 -0.7339552433724064 1.261875459711347 Z" fill="#619e2b" transform="matrix(1,0,0,1,0,0)" fill-rule="nonzero"></path></g><g clip-path="url(#SvgjsClipPath142835a71dbf8a-4622-4115-9236-ff36b3e60f14)"><path d=" M -0.5947167208832378 1.114710975405384 L -1.9581492142701007 1.114710975405384 C -1.9823999898441753 1.114710975405384 -2.0026089694892377 1.0945019957603224 -2.0026089694892377 1.0702512201862473 C -2.0026089694892377 1.0460004446121727 -1.9823999898441753 1.0257914649671105 -1.9581492142701007 1.0257914649671105 L -0.5947167208832378 1.0257914649671105 C -0.559687822831797 1.0257914649671105 -0.5273534553996975 1.00827701594139 -0.5071444757546351 0.9799844444383027 C -0.48693549610957265 0.950344607625545 -0.4815464348708891 0.9126211789547621 -0.49501908796759775 0.878939546212992 L -0.7914174560951763 0.10560925846194491 C -0.8048901091918848 0.07058036041050375 -0.8008483132628721 0.03016240112037938 -0.779292068308139 -0.0008247010020493439 C -0.7577358233534062 -0.031811803124477955 -0.7227069253019651 -0.05067351745986948 -0.6849834966311823 -0.05067351745986948 L -0.4492120674387896 -0.05067351745986948 C -0.4249612918647152 -0.05067351745986948 -0.4047523122196528 -0.030464537814807235 -0.4047523122196528 -0.006213762240732668 C -0.4047523122196528 0.018037013333341845 -0.4249612918647152 0.03824599297840414 -0.4492120674387896 0.03824599297840414 L -0.6849834966311823 0.03824599297840414 C -0.6971088844182194 0.03824599297840414 -0.7038452109665738 0.04498231952675813 -0.7065397415859149 0.050371380765441454 C -0.7092342722052567 0.05441317669445378 -0.71462333344394 0.06384403386214954 -0.7092342722052567 0.07596942164918685 L -0.41283590407767723 0.8492997094002338 C -0.3899323938132737 0.9099266483354204 -0.39801598567129903 0.9786371791286318 -0.4343921490324105 1.0311805262057936 C -0.4707683123935227 1.0837238732829557 -0.5313952513287095 1.114710975405384 -0.5947167208832378 1.114710975405384 Z" fill="#619e2b" transform="matrix(1,0,0,1,0,0)" fill-rule="nonzero"></path></g><g clip-path="url(#SvgjsClipPath142835a71dbf8a-4622-4115-9236-ff36b3e60f14)"><path d=" M -1.1511372937772832 0.5542486065823259 C -1.1511372937772832 0.5542486065823259 -1.2831692941250232 0.6768497497623699 -1.5256770498657695 0.5919720352531087 C -1.768184805606516 0.5070943207438473 -1.8099500302063112 0.5879302393240963 -1.8099500302063112 0.5879302393240963 C -1.8099500302063112 0.5879302393240963 -1.7371977034840873 0.3602424019897289 -1.5027735396013657 0.38179864694446186 C -1.268349375718644 0.4033548918991948 -1.1390119059902462 0.5246087697695679 -0.9180603952042328 0.3602424019897289 C -0.9180603952042328 0.3602424019897289 -1.0554814567906559 0.7698110561296562 -1.470439172169266 0.74286574993624 C -1.5364551723431359 0.7347821580782151 -1.7574066831291493 0.668766157904345 -1.9231203162186594 0.7469075458652524 C -1.9204257855993176 0.7576856683426186 -1.9163839896703052 0.7684637908199853 -1.912342193741293 0.777894647987681 C -1.4906481518143284 0.8641196278066129 -0.8884205583914748 0.8708559543549673 -0.7833338642371512 0.24033578942902623 L -1.031230681216581 -0.36997539585185213 C -1.0406615383842768 -0.39422617142592675 -1.0635650486486807 -0.40904608983230567 -1.089163089532426 -0.40904608983230567 L -1.1457482325386001 -0.40904608983230567 C -1.1861661918287245 -0.40904608983230567 -1.2158060286414827 -0.37266992647119374 -1.2077224367834574 -0.3322519671810693 L -1.1605681509449792 -0.10995319108538515 C -1.1457482325386001 -0.04258992560184455 -1.1982915796157616 0.022078809262354504 -1.2670021104089733 0.022078809262354504 L -1.5876512541106271 0.022078809262354504 C -1.638847335878118 0.022078809262354504 -1.6833070910972547 -0.014297354098757431 -1.6940852135746214 -0.06414617055657756 L -1.7560594178194788 -0.3578500080648149 C -1.7627957443678328 -0.38748984487757276 -1.7883937852515783 -0.40769882452263495 -1.8180336220643363 -0.40769882452263495 L -1.893480479405902 -0.40769882452263495 C -1.928509377457343 -0.40769882452263495 -1.95680194896043 -0.378058987709877 -1.95680194896043 -0.3430300896584359 L -1.9338984386960263 0.6714606885236866 C -1.9338984386960263 0.6768497497623699 -1.9325511733863554 0.6822388110010532 -1.9325511733863554 0.6876278722397363 C -1.8840496222382062 0.6539462394979662 -1.8220754179933487 0.6283481986142206 -1.7412394994131 0.6189173414465251 C -1.6038184378266769 0.6054446883498171 -1.3047255390797563 0.7253513009105194 -1.1511372937772832 0.5542486065823259 Z" fill="#78c62e" transform="matrix(1,0,0,1,0,0)" fill-rule="nonzero"></path></g><g clip-path="url(#SvgjsClipPath142835a71dbf8a-4622-4115-9236-ff36b3e60f14)"><path d=" M -1.912342193741293 0.777894647987681 C -1.8948277447155726 0.8223544032068179 -1.869229703831827 0.8668141584259547 -1.834200805780386 0.9045375870967377 C -1.7856992546322368 0.9584281994835703 -1.7169887238390253 0.9894153016059989 -1.6523199889748263 0.9894153016059989 L -0.7240541906116358 0.9894153016059989 C -0.6539963945087535 0.9894153016059989 -0.5960639861929087 0.9516918729352163 -0.5718132106188336 0.8910649340000297 C -0.5556460269027843 0.8479524440905634 -0.5569932922124547 0.7981036276327435 -0.5772022718575172 0.749602076484594 L -0.7846811295468223 0.238988524119356 C -0.8884205583914748 0.8708559543549673 -1.4906481518143284 0.8654668931162842 -1.912342193741293 0.777894647987681 Z" fill="#619e2b" transform="matrix(1,0,0,1,0,0)" fill-rule="nonzero"></path></g></g><g><path d=" M 0.3255 0.9089999999999999 Q 0.2025 0.846 0.138 0.73725 Q 0.0735 0.6285 0.0735 0.49499999999999994 Q 0.0735 0.351 0.14775 0.2377499999999999 Q 0.222 0.12449999999999994 0.35175 0.062249999999999917 Q 0.4815 -1.1102230246251565e-16 0.642 -1.1102230246251565e-16 Q 0.7125 -1.1102230246251565e-16 0.7845 0.011249999999999982 Q 0.8565 0.022499999999999964 0.9 0.04049999999999998 Q 0.9135 0.04499999999999993 0.91725 0.05174999999999996 Q 0.921 0.058499999999999885 0.9225 0.07499999999999996 L 0.9420000000000001 0.2835 Q 0.9420000000000001 0.2879999999999999 0.9345 0.2895 Q 0.927 0.2909999999999999 0.924 0.2849999999999999 Q 0.8715 0.16949999999999998 0.77925 0.10499999999999998 Q 0.687 0.04049999999999998 0.5685 0.04049999999999998 Q 0.41550000000000004 0.04049999999999998 0.33525 0.1469999999999999 Q 0.255 0.25349999999999995 0.255 0.43799999999999994 Q 0.255 0.5865 0.306 0.70275 Q 0.357 0.819 0.44775000000000004 0.8827499999999999 Q 0.5385 0.9465 0.651 0.9465 Q 0.7125 0.9465 0.7455 0.9329999999999999 Q 0.7785 0.9195 0.7935 0.8805 Q 0.8085 0.8414999999999999 0.8085 0.7649999999999999 Q 0.8085 0.6869999999999999 0.7995 0.65625 Q 0.7905 0.6255 0.76125 0.615 Q 0.732 0.6044999999999999 0.66 0.6044999999999999 Q 0.651 0.6044999999999999 0.651 0.5925 Q 0.651 0.588 0.65325 0.5842499999999999 Q 0.6555 0.5805 0.6585 0.5805 Q 0.786 0.588 0.864 0.588 Q 0.9405 0.588 1.0230000000000001 0.5834999999999999 Q 1.026 0.5834999999999999 1.02825 0.5872499999999999 Q 1.0305 0.591 1.0305 0.594 Q 1.0305 0.6044999999999999 1.0230000000000001 0.6044999999999999 Q 0.996 0.603 0.9855 0.61425 Q 0.975 0.6255 0.972 0.6592499999999999 Q 0.969 0.693 0.969 0.7799999999999999 Q 0.969 0.8474999999999999 0.9742500000000001 0.876 Q 0.9795 0.9045 0.9795 0.9119999999999999 Q 0.9795 0.9209999999999999 0.97575 0.9239999999999999 Q 0.972 0.9269999999999999 0.9615 0.9299999999999999 Q 0.768 0.972 0.6135 0.972 Q 0.4485 0.972 0.3255 0.9089999999999999 M 1.9304912109374999 0.945 Q 1.9304912109374999 0.954 1.9259912109375 0.954 L 1.6799912109375 0.954 Q 1.6574912109375 0.954 1.5997412109375 0.864 Q 1.5419912109375 0.774 1.4624912109375 0.6164999999999999 Q 1.4309912109375 0.621 1.3994912109375 0.621 L 1.3739912109374999 0.621 L 1.3739912109374999 0.8325 Q 1.3739912109374999 0.879 1.3807412109375 0.8999999999999999 Q 1.3874912109375 0.9209999999999999 1.4062412109375 0.9285 Q 1.4249912109375 0.9359999999999999 1.4669912109375 0.9359999999999999 Q 1.4699912109375 0.9359999999999999 1.4699912109375 0.945 Q 1.4699912109375 0.954 1.4669912109375 0.954 Q 1.4219912109375 0.954 1.3964912109375 0.9525 L 1.2944912109375 0.951 L 1.1969912109375 0.9525 Q 1.1699912109375 0.954 1.1219912109374999 0.954 Q 1.1189912109375 0.954 1.1189912109375 0.945 Q 1.1189912109375 0.9359999999999999 1.1219912109374999 0.9359999999999999 Q 1.1639912109375 0.9359999999999999 1.1834912109375 0.9285 Q 1.2029912109374998 0.9209999999999999 1.2104912109375 0.89925 Q 1.2179912109375 0.8775 1.2179912109375 0.8325 L 1.2179912109375 0.37349999999999994 Q 1.2179912109375 0.3284999999999999 1.2112412109375 0.3075 Q 1.2044912109375 0.2865 1.1849912109375 0.27825 Q 1.1654912109375 0.2699999999999999 1.1249912109375 0.2699999999999999 Q 1.1204912109375 0.2699999999999999 1.1204912109375 0.2609999999999999 Q 1.1204912109375 0.2519999999999999 1.1249912109375 0.2519999999999999 L 1.1984912109374999 0.25349999999999995 Q 1.2584912109375 0.25649999999999995 1.2944912109375 0.25649999999999995 Q 1.3229912109375 0.25649999999999995 1.3469912109375 0.2549999999999999 Q 1.3709912109375 0.25349999999999995 1.3889912109375 0.2519999999999999 Q 1.4384912109374999 0.24749999999999994 1.4819912109375 0.24749999999999994 Q 1.5989912109375 0.24749999999999994 1.6604912109374999 0.2849999999999999 Q 1.7219912109375 0.3224999999999999 1.7219912109375 0.3929999999999999 Q 1.7219912109375 0.4514999999999999 1.6844912109374999 0.5009999999999999 Q 1.6469912109375 0.5505 1.5809912109375 0.582 Q 1.6619912109375 0.7184999999999999 1.7204912109375 0.7949999999999999 Q 1.7789912109375 0.8714999999999999 1.8269912109375 0.9037499999999999 Q 1.8749912109375 0.9359999999999999 1.9259912109375 0.9359999999999999 Q 1.9304912109374999 0.9359999999999999 1.9304912109374999 0.945 M 1.4099912109375 0.5925 Q 1.4954912109374998 0.5925 1.5284912109375 0.55275 Q 1.5614912109374999 0.5129999999999999 1.5614912109374999 0.4335 Q 1.5614912109374999 0.27749999999999997 1.4474912109375 0.27749999999999997 Q 1.4159912109375 0.27749999999999997 1.4009912109375 0.2849999999999999 Q 1.3859912109374999 0.2925 1.3799912109374999 0.31275 Q 1.3739912109374999 0.33299999999999996 1.3739912109374999 0.37649999999999995 L 1.3739912109374999 0.591 Q 1.3844912109375 0.5925 1.4099912109375 0.5925 M 2.099950927734375 0.92175 Q 2.015950927734375 0.8714999999999999 1.9694509277343748 0.78675 Q 1.9229509277343748 0.702 1.9229509277343748 0.603 Q 1.9229509277343748 0.48899999999999993 1.9822009277343748 0.4049999999999999 Q 2.041450927734375 0.32099999999999995 2.133700927734375 0.27749999999999997 Q 2.2259509277343748 0.23399999999999999 2.323450927734375 0.23399999999999999 Q 2.429950927734375 0.23399999999999999 2.511700927734375 0.28574999999999995 Q 2.593450927734375 0.3374999999999999 2.638450927734375 0.42074999999999996 Q 2.6834509277343748 0.504 2.6834509277343748 0.5954999999999999 Q 2.6834509277343748 0.696 2.630950927734375 0.7822499999999999 Q 2.578450927734375 0.8684999999999999 2.488450927734375 0.92025 Q 2.398450927734375 0.972 2.290450927734375 0.972 Q 2.183950927734375 0.972 2.099950927734375 0.92175 M 2.4607009277343748 0.855 Q 2.512450927734375 0.7725 2.512450927734375 0.627 Q 2.512450927734375 0.528 2.4824509277343747 0.44699999999999995 Q 2.452450927734375 0.366 2.397700927734375 0.31875 Q 2.3429509277343747 0.27149999999999996 2.2709509277343747 0.27149999999999996 Q 2.183950927734375 0.27149999999999996 2.138950927734375 0.3434999999999999 Q 2.093950927734375 0.4155 2.093950927734375 0.5565 Q 2.093950927734375 0.663 2.124700927734375 0.7507499999999999 Q 2.1554509277343747 0.8384999999999999 2.207950927734375 0.8879999999999999 Q 2.2604509277343747 0.9375 2.324950927734375 0.9375 Q 2.408950927734375 0.9375 2.4607009277343748 0.855 M 3.3097258300781247 0.246 Q 3.374975830078125 0.2579999999999999 3.4169758300781248 0.27749999999999997 Q 3.4274758300781247 0.2819999999999999 3.430475830078125 0.2872499999999999 Q 3.433475830078125 0.2925 3.433475830078125 0.30299999999999994 L 3.440975830078125 0.45749999999999996 Q 3.440975830078125 0.46199999999999997 3.433475830078125 0.46349999999999997 Q 3.4259758300781247 0.46499999999999997 3.422975830078125 0.45899999999999996 Q 3.365975830078125 0.36149999999999993 3.3067258300781246 0.3142499999999999 Q 3.247475830078125 0.2669999999999999 3.170975830078125 0.2669999999999999 Q 3.0644758300781247 0.2669999999999999 3.007475830078125 0.3517499999999999 Q 2.950475830078125 0.4365 2.950475830078125 0.5774999999999999 Q 2.950475830078125 0.6704999999999999 2.976725830078125 0.7529999999999999 Q 3.0029758300781246 0.8354999999999999 3.059975830078125 0.8879999999999999 Q 3.116975830078125 0.9405 3.2039758300781247 0.9405 Q 3.280475830078125 0.9405 3.3337258300781247 0.8939999999999999 Q 3.386975830078125 0.8474999999999999 3.4379758300781247 0.744 Q 3.4394758300781247 0.738 3.4469758300781246 0.7394999999999999 Q 3.454475830078125 0.741 3.454475830078125 0.7454999999999999 L 3.442475830078125 0.9045 Q 3.440975830078125 0.9165 3.4379758300781247 0.9209999999999999 Q 3.434975830078125 0.9255 3.421475830078125 0.9315 Q 3.3059758300781246 0.972 3.1814758300781247 0.972 Q 3.037475830078125 0.972 2.9459758300781247 0.9149999999999999 Q 2.8544758300781248 0.858 2.813225830078125 0.7725 Q 2.7719758300781248 0.6869999999999999 2.7719758300781248 0.6 Q 2.7719758300781248 0.49799999999999994 2.826725830078125 0.4139999999999999 Q 2.881475830078125 0.32999999999999996 2.976725830078125 0.2819999999999999 Q 3.071975830078125 0.23399999999999999 3.188975830078125 0.23399999999999999 Q 3.244475830078125 0.23399999999999999 3.3097258300781247 0.246 M 3.70648388671875 0.5505 Q 3.70648388671875 0.717 3.7799838867187496 0.816 Q 3.8534838867187498 0.9149999999999999 3.98698388671875 0.9149999999999999 Q 4.02448388671875 0.9149999999999999 4.06348388671875 0.9045 Q 4.102483886718749 0.8939999999999999 4.13248388671875 0.873 L 4.13398388671875 0.873 Q 4.13848388671875 0.873 4.14223388671875 0.87825 Q 4.145983886718749 0.8835 4.14298388671875 0.8879999999999999 Q 4.03798388671875 0.972 3.9119838867187497 0.972 Q 3.7949838867187498 0.972 3.7132338867187498 0.92175 Q 3.6314838867187498 0.8714999999999999 3.58948388671875 0.7905 Q 3.5474838867187497 0.7095 3.5474838867187497 0.615 Q 3.5474838867187497 0.5115 3.59848388671875 0.4252499999999999 Q 3.6494838867187496 0.33899999999999997 3.7364838867187498 0.28874999999999995 Q 3.82348388671875 0.23849999999999993 3.92548388671875 0.23849999999999993 Q 4.03648388671875 0.23849999999999993 4.09498388671875 0.29699999999999993 Q 4.15348388671875 0.3554999999999999 4.15348388671875 0.44999999999999996 Q 4.15348388671875 0.4695 4.149733886718749 0.4769999999999999 Q 4.145983886718749 0.48449999999999993 4.13548388671875 0.48449999999999993 L 3.7094838867187496 0.48599999999999993 Q 3.70648388671875 0.5249999999999999 3.70648388671875 0.5505 M 3.7702338867187497 0.3224999999999999 Q 3.72898388671875 0.37049999999999994 3.71398388671875 0.45599999999999996 L 3.9929838867187497 0.4514999999999999 Q 3.9899838867187496 0.27449999999999997 3.8744838867187497 0.27449999999999997 Q 3.81148388671875 0.27449999999999997 3.7702338867187497 0.3224999999999999 M 5.03398828125 0.945 Q 5.03398828125 0.954 5.02948828125 0.954 L 4.7834882812499995 0.954 Q 4.7609882812499995 0.954 4.70323828125 0.864 Q 4.64548828125 0.774 4.56598828125 0.6164999999999999 Q 4.53448828125 0.621 4.5029882812499995 0.621 L 4.477488281249999 0.621 L 4.477488281249999 0.8325 Q 4.477488281249999 0.879 4.48423828125 0.8999999999999999 Q 4.49098828125 0.9209999999999999 4.50973828125 0.9285 Q 4.52848828125 0.9359999999999999 4.570488281249999 0.9359999999999999 Q 4.5734882812499995 0.9359999999999999 4.5734882812499995 0.945 Q 4.5734882812499995 0.954 4.570488281249999 0.954 Q 4.5254882812499995 0.954 4.499988281249999 0.9525 L 4.39798828125 0.951 L 4.30048828125 0.9525 Q 4.27348828125 0.954 4.22548828125 0.954 Q 4.2224882812499995 0.954 4.2224882812499995 0.945 Q 4.2224882812499995 0.9359999999999999 4.22548828125 0.9359999999999999 Q 4.2674882812499995 0.9359999999999999 4.286988281249999 0.9285 Q 4.30648828125 0.9209999999999999 4.3139882812499994 0.89925 Q 4.32148828125 0.8775 4.32148828125 0.8325 L 4.32148828125 0.37349999999999994 Q 4.32148828125 0.3284999999999999 4.3147382812499995 0.3075 Q 4.30798828125 0.2865 4.288488281249999 0.27825 Q 4.2689882812499995 0.2699999999999999 4.22848828125 0.2699999999999999 Q 4.22398828125 0.2699999999999999 4.22398828125 0.2609999999999999 Q 4.22398828125 0.2519999999999999 4.22848828125 0.2519999999999999 L 4.30198828125 0.25349999999999995 Q 4.3619882812499995 0.25649999999999995 4.39798828125 0.25649999999999995 Q 4.42648828125 0.25649999999999995 4.450488281249999 0.2549999999999999 Q 4.474488281249999 0.25349999999999995 4.49248828125 0.2519999999999999 Q 4.54198828125 0.24749999999999994 4.58548828125 0.24749999999999994 Q 4.70248828125 0.24749999999999994 4.76398828125 0.2849999999999999 Q 4.825488281249999 0.3224999999999999 4.825488281249999 0.3929999999999999 Q 4.825488281249999 0.4514999999999999 4.78798828125 0.5009999999999999 Q 4.75048828125 0.5505 4.684488281249999 0.582 Q 4.76548828125 0.7184999999999999 4.823988281249999 0.7949999999999999 Q 4.88248828125 0.8714999999999999 4.93048828125 0.9037499999999999 Q 4.97848828125 0.9359999999999999 5.02948828125 0.9359999999999999 Q 5.03398828125 0.9359999999999999 5.03398828125 0.945 M 4.51348828125 0.5925 Q 4.59898828125 0.5925 4.63198828125 0.55275 Q 4.664988281249999 0.5129999999999999 4.664988281249999 0.4335 Q 4.664988281249999 0.27749999999999997 4.5509882812499995 0.27749999999999997 Q 4.51948828125 0.27749999999999997 4.50448828125 0.2849999999999999 Q 4.48948828125 0.2925 4.48348828125 0.31275 Q 4.477488281249999 0.33299999999999996 4.477488281249999 0.37649999999999995 L 4.477488281249999 0.591 Q 4.48798828125 0.5925 4.51348828125 0.5925 M 5.28298388671875 0.8265 Q 5.28298388671875 0.867 5.29048388671875 0.8865 Q 5.297983886718749 0.9059999999999999 5.319733886718749 0.91425 Q 5.341483886718749 0.9225 5.38498388671875 0.9225 L 5.40148388671875 0.9225 Q 5.4869838867187495 0.9225 5.5574838867187495 0.867 Q 5.6279838867187495 0.8114999999999999 5.66098388671875 0.717 Q 5.66248388671875 0.714 5.670733886718749 0.71475 Q 5.67898388671875 0.7154999999999999 5.67898388671875 0.7184999999999999 Q 5.66848388671875 0.7979999999999999 5.66848388671875 0.9315 Q 5.66848388671875 0.9435 5.66323388671875 0.94875 Q 5.65798388671875 0.954 5.644483886718749 0.954 L 5.04448388671875 0.954 Q 5.0414838867187495 0.954 5.0414838867187495 0.945 Q 5.0414838867187495 0.9359999999999999 5.04448388671875 0.9359999999999999 Q 5.083483886718749 0.9359999999999999 5.10148388671875 0.9285 Q 5.11948388671875 0.9209999999999999 5.12623388671875 0.89925 Q 5.132983886718749 0.8775 5.132983886718749 0.8325 L 5.132983886718749 0.37349999999999994 Q 5.132983886718749 0.3284999999999999 5.12623388671875 0.3075 Q 5.11948388671875 0.2865 5.10148388671875 0.27825 Q 5.083483886718749 0.2699999999999999 5.04448388671875 0.2699999999999999 Q 5.0414838867187495 0.2699999999999999 5.0414838867187495 0.2609999999999999 Q 5.0414838867187495 0.2519999999999999 5.04448388671875 0.2519999999999999 L 5.11798388671875 0.25349999999999995 Q 5.180983886718749 0.25649999999999995 5.21548388671875 0.25649999999999995 Q 5.2544838867187496 0.25649999999999995 5.317483886718749 0.25349999999999995 L 5.38648388671875 0.2519999999999999 Q 5.390983886718749 0.2519999999999999 5.390983886718749 0.2609999999999999 Q 5.390983886718749 0.2699999999999999 5.38648388671875 0.2699999999999999 Q 5.341483886718749 0.2699999999999999 5.319733886718749 0.27825 Q 5.297983886718749 0.2865 5.29048388671875 0.3082499999999999 Q 5.28298388671875 0.32999999999999996 5.28298388671875 0.375 L 5.28298388671875 0.8265 M 6.424550537109375 0.2609999999999999 Q 6.424550537109375 0.2699999999999999 6.421550537109375 0.2699999999999999 Q 6.376550537109375 0.2699999999999999 6.339800537109374 0.30599999999999994 Q 6.303050537109375 0.34199999999999997 6.282050537109375 0.4049999999999999 L 6.070550537109375 0.9525 Q 6.034550537109375 1.0514999999999999 5.980550537109375 1.128 Q 5.9265505371093745 1.2045 5.868050537109375 1.2345 Q 5.859050537109375 1.2405 5.837300537109375 1.22325 Q 5.815550537109375 1.206 5.802050537109374 1.1804999999999999 Q 5.787050537109375 1.146 5.787050537109375 1.1175 Q 5.787050537109375 1.092 5.799050537109375 1.089 Q 5.883050537109375 1.077 5.942300537109374 1.04625 Q 6.001550537109375 1.0154999999999998 6.036050537109374 0.951 L 5.760050537109374 0.37649999999999995 Q 5.730050537109374 0.3135 5.707550537109374 0.29174999999999995 Q 5.685050537109374 0.2699999999999999 5.6460505371093745 0.2699999999999999 Q 5.641550537109374 0.2699999999999999 5.641550537109374 0.2609999999999999 Q 5.641550537109374 0.2519999999999999 5.6460505371093745 0.2519999999999999 L 5.712050537109374 0.25349999999999995 Q 5.769050537109375 0.25649999999999995 5.821550537109375 0.25649999999999995 Q 5.859050537109375 0.25649999999999995 5.916050537109375 0.25349999999999995 L 5.982050537109375 0.2519999999999999 Q 5.986550537109375 0.2519999999999999 5.986550537109375 0.2609999999999999 Q 5.986550537109375 0.2699999999999999 5.982050537109375 0.2699999999999999 Q 5.9040505371093746 0.2699999999999999 5.9040505371093746 0.31499999999999995 Q 5.9040505371093746 0.3344999999999999 5.917550537109374 0.36149999999999993 L 6.109550537109374 0.7515 L 6.241550537109375 0.3959999999999999 Q 6.2535505371093745 0.363 6.2535505371093745 0.33899999999999997 Q 6.2535505371093745 0.2699999999999999 6.1605505371093745 0.2699999999999999 Q 6.156050537109374 0.2699999999999999 6.156050537109374 0.2609999999999999 Q 6.156050537109374 0.2519999999999999 6.1605505371093745 0.2519999999999999 L 6.213050537109375 0.25349999999999995 Q 6.261050537109375 0.25649999999999995 6.307550537109375 0.25649999999999995 Q 6.333050537109375 0.25649999999999995 6.366050537109374 0.25349999999999995 L 6.421550537109375 0.2519999999999999 Q 6.424550537109375 0.2519999999999999 6.424550537109375 0.2609999999999999" fill="#619e2b" fill-rule="nonzero"></path></g><g></g></g><defs><clipPath id="SvgjsClipPath142837"><path d=" M -2.0026089694892377 -0.5235636411543246 h 1.6026089694892376 v 2.0011272823086492 h -1.6026089694892376 Z"></path></clipPath><clipPath id="SvgjsClipPath142835a71dbf8a-4622-4115-9236-ff36b3e60f14"><path d=" M -2.0026089694892377 -0.5235636411543246 L -0.40000000000000013 -0.5235636411543246 L -0.40000000000000013 1.4775636411543247 L -2.0026089694892373 1.4775636411543247 Z"></path></clipPath></defs></svg>